<mxfile host="app.diagrams.net" modified="2021-06-11T12:56:31.371Z" agent="5.0 (Macintosh; Intel Mac OS X 10_15_7) AppleWebKit/537.36 (KHTML, like Gecko) Chrome/91.0.4472.77 Safari/537.36" etag="jJ53_AuNfksP0wwOyx-H" version="14.7.7" type="github">
  <diagram id="C5RBs43oDa-KdzZeNtuy" name="Page-1">
    <mxGraphModel dx="946" dy="589" grid="1" gridSize="10" guides="1" tooltips="1" connect="1" arrows="1" fold="1" page="1" pageScale="1" pageWidth="827" pageHeight="1169" math="0" shadow="0">
      <root>
        <mxCell id="WIyWlLk6GJQsqaUBKTNV-0" />
        <mxCell id="WIyWlLk6GJQsqaUBKTNV-1" parent="WIyWlLk6GJQsqaUBKTNV-0" />
        <mxCell id="9Kswj52puxj7toGKXcYN-34" value="" style="edgeStyle=orthogonalEdgeStyle;rounded=0;orthogonalLoop=1;jettySize=auto;html=1;" edge="1" parent="WIyWlLk6GJQsqaUBKTNV-1" source="WIyWlLk6GJQsqaUBKTNV-3" target="9Kswj52puxj7toGKXcYN-2">
          <mxGeometry relative="1" as="geometry" />
        </mxCell>
        <mxCell id="WIyWlLk6GJQsqaUBKTNV-3" value="Start" style="rounded=1;whiteSpace=wrap;html=1;fontSize=12;glass=0;strokeWidth=1;shadow=0;" parent="WIyWlLk6GJQsqaUBKTNV-1" vertex="1">
          <mxGeometry x="160" y="80" width="120" height="40" as="geometry" />
        </mxCell>
        <mxCell id="WIyWlLk6GJQsqaUBKTNV-4" value="Yes" style="rounded=0;html=1;jettySize=auto;orthogonalLoop=1;fontSize=11;endArrow=block;endFill=0;endSize=8;strokeWidth=1;shadow=0;labelBackgroundColor=none;edgeStyle=orthogonalEdgeStyle;" parent="WIyWlLk6GJQsqaUBKTNV-1" target="WIyWlLk6GJQsqaUBKTNV-10" edge="1">
          <mxGeometry y="20" relative="1" as="geometry">
            <mxPoint as="offset" />
            <mxPoint x="220" y="250" as="sourcePoint" />
          </mxGeometry>
        </mxCell>
        <mxCell id="WIyWlLk6GJQsqaUBKTNV-5" value="No" style="edgeStyle=orthogonalEdgeStyle;rounded=0;html=1;jettySize=auto;orthogonalLoop=1;fontSize=11;endArrow=block;endFill=0;endSize=8;strokeWidth=1;shadow=0;labelBackgroundColor=none;" parent="WIyWlLk6GJQsqaUBKTNV-1" target="WIyWlLk6GJQsqaUBKTNV-7" edge="1">
          <mxGeometry y="10" relative="1" as="geometry">
            <mxPoint as="offset" />
            <mxPoint x="270" y="210" as="sourcePoint" />
          </mxGeometry>
        </mxCell>
        <mxCell id="WIyWlLk6GJQsqaUBKTNV-9" value="Yes" style="edgeStyle=orthogonalEdgeStyle;rounded=0;html=1;jettySize=auto;orthogonalLoop=1;fontSize=11;endArrow=block;endFill=0;endSize=8;strokeWidth=1;shadow=0;labelBackgroundColor=none;" parent="WIyWlLk6GJQsqaUBKTNV-1" target="WIyWlLk6GJQsqaUBKTNV-12" edge="1">
          <mxGeometry y="10" relative="1" as="geometry">
            <mxPoint as="offset" />
            <mxPoint x="270" y="330" as="sourcePoint" />
          </mxGeometry>
        </mxCell>
        <mxCell id="WIyWlLk6GJQsqaUBKTNV-11" value="End" style="rounded=1;whiteSpace=wrap;html=1;fontSize=12;glass=0;strokeWidth=1;shadow=0;" parent="WIyWlLk6GJQsqaUBKTNV-1" vertex="1">
          <mxGeometry x="160" y="780" width="120" height="40" as="geometry" />
        </mxCell>
        <mxCell id="9Kswj52puxj7toGKXcYN-0" value="BaseURLs" style="shape=parallelogram;perimeter=parallelogramPerimeter;whiteSpace=wrap;html=1;fixedSize=1;" vertex="1" parent="WIyWlLk6GJQsqaUBKTNV-1">
          <mxGeometry x="160" y="20" width="120" height="40" as="geometry" />
        </mxCell>
        <mxCell id="9Kswj52puxj7toGKXcYN-5" value="" style="edgeStyle=orthogonalEdgeStyle;rounded=0;orthogonalLoop=1;jettySize=auto;html=1;" edge="1" parent="WIyWlLk6GJQsqaUBKTNV-1" source="9Kswj52puxj7toGKXcYN-2" target="9Kswj52puxj7toGKXcYN-14">
          <mxGeometry relative="1" as="geometry" />
        </mxCell>
        <mxCell id="9Kswj52puxj7toGKXcYN-2" value="BaseURLs&lt;br&gt;ごとLoop" style="shape=trapezoid;perimeter=trapezoidPerimeter;whiteSpace=wrap;html=1;fixedSize=1;" vertex="1" parent="WIyWlLk6GJQsqaUBKTNV-1">
          <mxGeometry x="160" y="140" width="120" height="50" as="geometry" />
        </mxCell>
        <mxCell id="9Kswj52puxj7toGKXcYN-32" value="" style="edgeStyle=orthogonalEdgeStyle;rounded=0;orthogonalLoop=1;jettySize=auto;html=1;" edge="1" parent="WIyWlLk6GJQsqaUBKTNV-1" source="9Kswj52puxj7toGKXcYN-3" target="WIyWlLk6GJQsqaUBKTNV-11">
          <mxGeometry relative="1" as="geometry" />
        </mxCell>
        <mxCell id="9Kswj52puxj7toGKXcYN-3" value="BaseURLs&lt;br&gt;ごとLoop" style="shape=trapezoid;perimeter=trapezoidPerimeter;whiteSpace=wrap;html=1;fixedSize=1;direction=west;" vertex="1" parent="WIyWlLk6GJQsqaUBKTNV-1">
          <mxGeometry x="160" y="710" width="120" height="50" as="geometry" />
        </mxCell>
        <mxCell id="9Kswj52puxj7toGKXcYN-10" value="" style="edgeStyle=orthogonalEdgeStyle;rounded=0;orthogonalLoop=1;jettySize=auto;html=1;exitX=0.5;exitY=1;exitDx=0;exitDy=0;" edge="1" parent="WIyWlLk6GJQsqaUBKTNV-1" source="9Kswj52puxj7toGKXcYN-14" target="9Kswj52puxj7toGKXcYN-9">
          <mxGeometry relative="1" as="geometry">
            <mxPoint x="220" y="270" as="sourcePoint" />
          </mxGeometry>
        </mxCell>
        <mxCell id="9Kswj52puxj7toGKXcYN-19" value="" style="edgeStyle=orthogonalEdgeStyle;rounded=0;orthogonalLoop=1;jettySize=auto;html=1;" edge="1" parent="WIyWlLk6GJQsqaUBKTNV-1" source="9Kswj52puxj7toGKXcYN-6" target="9Kswj52puxj7toGKXcYN-18">
          <mxGeometry relative="1" as="geometry" />
        </mxCell>
        <mxCell id="9Kswj52puxj7toGKXcYN-6" value="&lt;span class=&quot;pl-v&quot; style=&quot;box-sizing: border-box ; font-family: , , &amp;#34;sf mono&amp;#34; , &amp;#34;consolas&amp;#34; , &amp;#34;liberation mono&amp;#34; , &amp;#34;menlo&amp;#34; , monospace ; background-color: rgb(255 , 255 , 255)&quot;&gt;&lt;span class=&quot;pl-token&quot; style=&quot;box-sizing: border-box&quot;&gt;PageNum_Easy&lt;br&gt;&lt;/span&gt;&lt;/span&gt;&lt;span style=&quot;color: rgb(36 , 41 , 46) ; font-family: , , &amp;#34;sf mono&amp;#34; , &amp;#34;consolas&amp;#34; , &amp;#34;liberation mono&amp;#34; , &amp;#34;menlo&amp;#34; , monospace ; background-color: rgb(255 , 255 , 255)&quot;&gt;(&lt;/span&gt;&lt;span style=&quot;background-color: rgb(255 , 255 , 255)&quot;&gt;&lt;font color=&quot;#ea6b66&quot;&gt;BaseURL&lt;/font&gt;&lt;/span&gt;&lt;span style=&quot;color: rgb(36 , 41 , 46) ; font-family: , , &amp;#34;sf mono&amp;#34; , &amp;#34;consolas&amp;#34; , &amp;#34;liberation mono&amp;#34; , &amp;#34;menlo&amp;#34; , monospace ; background-color: rgb(255 , 255 , 255)&quot;&gt;)&lt;/span&gt;" style="rounded=1;whiteSpace=wrap;html=1;fontSize=12;glass=0;strokeWidth=1;shadow=0;" vertex="1" parent="WIyWlLk6GJQsqaUBKTNV-1">
          <mxGeometry x="340" y="200" width="120" height="40" as="geometry" />
        </mxCell>
        <mxCell id="9Kswj52puxj7toGKXcYN-12" style="edgeStyle=orthogonalEdgeStyle;rounded=0;orthogonalLoop=1;jettySize=auto;html=1;entryX=0.5;entryY=0;entryDx=0;entryDy=0;exitX=1;exitY=0.25;exitDx=0;exitDy=0;" edge="1" parent="WIyWlLk6GJQsqaUBKTNV-1" source="9Kswj52puxj7toGKXcYN-9" target="9Kswj52puxj7toGKXcYN-6">
          <mxGeometry relative="1" as="geometry" />
        </mxCell>
        <mxCell id="9Kswj52puxj7toGKXcYN-27" value="" style="edgeStyle=orthogonalEdgeStyle;rounded=0;orthogonalLoop=1;jettySize=auto;html=1;entryX=0.5;entryY=0;entryDx=0;entryDy=0;" edge="1" parent="WIyWlLk6GJQsqaUBKTNV-1" source="9Kswj52puxj7toGKXcYN-9" target="9Kswj52puxj7toGKXcYN-46">
          <mxGeometry relative="1" as="geometry">
            <mxPoint x="130" y="400" as="targetPoint" />
          </mxGeometry>
        </mxCell>
        <mxCell id="9Kswj52puxj7toGKXcYN-9" value="PageNum_Easy" style="shape=process;whiteSpace=wrap;html=1;backgroundOutline=1;" vertex="1" parent="WIyWlLk6GJQsqaUBKTNV-1">
          <mxGeometry x="160" y="290" width="120" height="40" as="geometry" />
        </mxCell>
        <mxCell id="9Kswj52puxj7toGKXcYN-14" value="&lt;span&gt;Print District Status&lt;/span&gt;&lt;br&gt;&lt;span&gt;大ステータスを表示&lt;/span&gt;" style="rounded=0;whiteSpace=wrap;html=1;" vertex="1" parent="WIyWlLk6GJQsqaUBKTNV-1">
          <mxGeometry x="160" y="210" width="120" height="40" as="geometry" />
        </mxCell>
        <mxCell id="9Kswj52puxj7toGKXcYN-21" value="" style="edgeStyle=orthogonalEdgeStyle;rounded=0;orthogonalLoop=1;jettySize=auto;html=1;" edge="1" parent="WIyWlLk6GJQsqaUBKTNV-1" source="9Kswj52puxj7toGKXcYN-18" target="9Kswj52puxj7toGKXcYN-20">
          <mxGeometry relative="1" as="geometry" />
        </mxCell>
        <mxCell id="9Kswj52puxj7toGKXcYN-18" value="最大Page数を取得" style="rounded=0;whiteSpace=wrap;html=1;" vertex="1" parent="WIyWlLk6GJQsqaUBKTNV-1">
          <mxGeometry x="340" y="260" width="120" height="40" as="geometry" />
        </mxCell>
        <mxCell id="9Kswj52puxj7toGKXcYN-23" value="" style="edgeStyle=orthogonalEdgeStyle;rounded=0;orthogonalLoop=1;jettySize=auto;html=1;entryX=0.5;entryY=0;entryDx=0;entryDy=0;" edge="1" parent="WIyWlLk6GJQsqaUBKTNV-1" source="9Kswj52puxj7toGKXcYN-20" target="9Kswj52puxj7toGKXcYN-22">
          <mxGeometry relative="1" as="geometry">
            <mxPoint x="400" y="380" as="targetPoint" />
          </mxGeometry>
        </mxCell>
        <mxCell id="9Kswj52puxj7toGKXcYN-20" value="各ページのURL作成" style="rounded=0;whiteSpace=wrap;html=1;" vertex="1" parent="WIyWlLk6GJQsqaUBKTNV-1">
          <mxGeometry x="340" y="320" width="120" height="40" as="geometry" />
        </mxCell>
        <mxCell id="9Kswj52puxj7toGKXcYN-24" style="edgeStyle=orthogonalEdgeStyle;rounded=0;orthogonalLoop=1;jettySize=auto;html=1;entryX=1;entryY=0.75;entryDx=0;entryDy=0;exitX=0;exitY=0.5;exitDx=0;exitDy=0;" edge="1" parent="WIyWlLk6GJQsqaUBKTNV-1" source="9Kswj52puxj7toGKXcYN-22" target="9Kswj52puxj7toGKXcYN-9">
          <mxGeometry relative="1" as="geometry">
            <mxPoint x="340" y="390" as="sourcePoint" />
          </mxGeometry>
        </mxCell>
        <mxCell id="9Kswj52puxj7toGKXcYN-22" value="&lt;span style=&quot;background-color: rgb(255 , 255 , 255)&quot;&gt;Return&lt;br&gt;&lt;/span&gt;&lt;span style=&quot;background-color: rgb(255 , 255 , 255)&quot;&gt;&lt;font color=&quot;#ea6b66&quot;&gt;PageFullURLs&lt;/font&gt;&lt;/span&gt;" style="rounded=1;whiteSpace=wrap;html=1;fontSize=12;glass=0;strokeWidth=1;shadow=0;" vertex="1" parent="WIyWlLk6GJQsqaUBKTNV-1">
          <mxGeometry x="340" y="380" width="120" height="40" as="geometry" />
        </mxCell>
        <mxCell id="9Kswj52puxj7toGKXcYN-37" value="" style="edgeStyle=orthogonalEdgeStyle;rounded=0;orthogonalLoop=1;jettySize=auto;html=1;" edge="1" parent="WIyWlLk6GJQsqaUBKTNV-1" source="9Kswj52puxj7toGKXcYN-26" target="9Kswj52puxj7toGKXcYN-31">
          <mxGeometry relative="1" as="geometry" />
        </mxCell>
        <mxCell id="9Kswj52puxj7toGKXcYN-26" value="PageFullURLs&lt;br&gt;ごとLoop" style="shape=trapezoid;perimeter=trapezoidPerimeter;whiteSpace=wrap;html=1;fixedSize=1;" vertex="1" parent="WIyWlLk6GJQsqaUBKTNV-1">
          <mxGeometry x="510" y="270" width="120" height="50" as="geometry" />
        </mxCell>
        <mxCell id="9Kswj52puxj7toGKXcYN-41" value="" style="edgeStyle=orthogonalEdgeStyle;rounded=0;orthogonalLoop=1;jettySize=auto;html=1;" edge="1" parent="WIyWlLk6GJQsqaUBKTNV-1" source="9Kswj52puxj7toGKXcYN-29" target="9Kswj52puxj7toGKXcYN-40">
          <mxGeometry relative="1" as="geometry" />
        </mxCell>
        <mxCell id="9Kswj52puxj7toGKXcYN-29" value="PageFullURLs&lt;br&gt;ごとLoop" style="shape=trapezoid;perimeter=trapezoidPerimeter;whiteSpace=wrap;html=1;fixedSize=1;direction=west;" vertex="1" parent="WIyWlLk6GJQsqaUBKTNV-1">
          <mxGeometry x="160" y="570" width="120" height="50" as="geometry" />
        </mxCell>
        <mxCell id="9Kswj52puxj7toGKXcYN-54" value="" style="edgeStyle=orthogonalEdgeStyle;rounded=0;orthogonalLoop=1;jettySize=auto;html=1;" edge="1" parent="WIyWlLk6GJQsqaUBKTNV-1" source="9Kswj52puxj7toGKXcYN-31" target="9Kswj52puxj7toGKXcYN-53">
          <mxGeometry relative="1" as="geometry" />
        </mxCell>
        <mxCell id="9Kswj52puxj7toGKXcYN-76" value="" style="edgeStyle=orthogonalEdgeStyle;rounded=0;orthogonalLoop=1;jettySize=auto;html=1;" edge="1" parent="WIyWlLk6GJQsqaUBKTNV-1" source="9Kswj52puxj7toGKXcYN-31" target="9Kswj52puxj7toGKXcYN-55">
          <mxGeometry relative="1" as="geometry" />
        </mxCell>
        <mxCell id="9Kswj52puxj7toGKXcYN-31" value="&lt;span&gt;Print Room Detail Status&lt;/span&gt;&lt;br&gt;&lt;span&gt;小ステータスを表示&lt;/span&gt;" style="rounded=0;whiteSpace=wrap;html=1;" vertex="1" parent="WIyWlLk6GJQsqaUBKTNV-1">
          <mxGeometry x="510" y="340" width="120" height="40" as="geometry" />
        </mxCell>
        <mxCell id="9Kswj52puxj7toGKXcYN-42" value="" style="edgeStyle=orthogonalEdgeStyle;rounded=0;orthogonalLoop=1;jettySize=auto;html=1;" edge="1" parent="WIyWlLk6GJQsqaUBKTNV-1" source="9Kswj52puxj7toGKXcYN-40" target="9Kswj52puxj7toGKXcYN-3">
          <mxGeometry relative="1" as="geometry" />
        </mxCell>
        <mxCell id="9Kswj52puxj7toGKXcYN-40" value="&lt;span style=&quot;color: rgb(227 , 98 , 9) ; font-family: , , &amp;#34;sf mono&amp;#34; , &amp;#34;consolas&amp;#34; , &amp;#34;liberation mono&amp;#34; , &amp;#34;menlo&amp;#34; , monospace ; background-color: rgb(255 , 255 , 255)&quot;&gt;RoomDetails&lt;/span&gt;&lt;br&gt;CSVに出力" style="shape=parallelogram;perimeter=parallelogramPerimeter;whiteSpace=wrap;html=1;fixedSize=1;" vertex="1" parent="WIyWlLk6GJQsqaUBKTNV-1">
          <mxGeometry x="160" y="640" width="120" height="50" as="geometry" />
        </mxCell>
        <mxCell id="9Kswj52puxj7toGKXcYN-48" style="edgeStyle=orthogonalEdgeStyle;rounded=0;orthogonalLoop=1;jettySize=auto;html=1;entryX=0.5;entryY=0;entryDx=0;entryDy=0;exitX=1;exitY=0.25;exitDx=0;exitDy=0;" edge="1" parent="WIyWlLk6GJQsqaUBKTNV-1" source="9Kswj52puxj7toGKXcYN-43" target="9Kswj52puxj7toGKXcYN-45">
          <mxGeometry relative="1" as="geometry">
            <Array as="points">
              <mxPoint x="480" y="470" />
              <mxPoint x="480" y="180" />
              <mxPoint x="570" y="180" />
            </Array>
          </mxGeometry>
        </mxCell>
        <mxCell id="9Kswj52puxj7toGKXcYN-64" value="" style="edgeStyle=orthogonalEdgeStyle;rounded=0;orthogonalLoop=1;jettySize=auto;html=1;entryX=0.5;entryY=1;entryDx=0;entryDy=0;" edge="1" parent="WIyWlLk6GJQsqaUBKTNV-1" source="9Kswj52puxj7toGKXcYN-43" target="9Kswj52puxj7toGKXcYN-29">
          <mxGeometry relative="1" as="geometry">
            <mxPoint x="220" y="540" as="targetPoint" />
          </mxGeometry>
        </mxCell>
        <mxCell id="9Kswj52puxj7toGKXcYN-43" value="Parsedistrict" style="shape=process;whiteSpace=wrap;html=1;backgroundOutline=1;" vertex="1" parent="WIyWlLk6GJQsqaUBKTNV-1">
          <mxGeometry x="160" y="460" width="120" height="40" as="geometry" />
        </mxCell>
        <mxCell id="9Kswj52puxj7toGKXcYN-52" style="edgeStyle=orthogonalEdgeStyle;rounded=0;orthogonalLoop=1;jettySize=auto;html=1;entryX=0.5;entryY=0;entryDx=0;entryDy=0;" edge="1" parent="WIyWlLk6GJQsqaUBKTNV-1" source="9Kswj52puxj7toGKXcYN-45" target="9Kswj52puxj7toGKXcYN-26">
          <mxGeometry relative="1" as="geometry" />
        </mxCell>
        <mxCell id="9Kswj52puxj7toGKXcYN-45" value="&lt;span class=&quot;pl-v&quot; style=&quot;box-sizing: border-box ; font-family: , , &amp;#34;sf mono&amp;#34; , &amp;#34;consolas&amp;#34; , &amp;#34;liberation mono&amp;#34; , &amp;#34;menlo&amp;#34; , monospace ; background-color: rgb(255 , 255 , 255)&quot;&gt;&lt;span class=&quot;pl-token&quot; style=&quot;box-sizing: border-box&quot;&gt;&lt;span style=&quot;background-color: rgb(248 , 249 , 250)&quot;&gt;Parsedistrict&lt;/span&gt;&lt;br&gt;&lt;/span&gt;&lt;/span&gt;&lt;span style=&quot;color: rgb(36 , 41 , 46) ; font-family: , , &amp;#34;sf mono&amp;#34; , &amp;#34;consolas&amp;#34; , &amp;#34;liberation mono&amp;#34; , &amp;#34;menlo&amp;#34; , monospace ; background-color: rgb(255 , 255 , 255)&quot;&gt;(&lt;/span&gt;&lt;span style=&quot;color: rgb(234 , 107 , 102) ; background-color: rgb(255 , 255 , 255)&quot;&gt;PageFullURLs,&amp;nbsp;&lt;br&gt;&lt;/span&gt;&lt;span style=&quot;color: rgb(227 , 98 , 9) ; font-family: , , &amp;#34;sf mono&amp;#34; , &amp;#34;consolas&amp;#34; , &amp;#34;liberation mono&amp;#34; , &amp;#34;menlo&amp;#34; , monospace ; background-color: rgb(255 , 255 , 255)&quot;&gt;RoomDetails&lt;/span&gt;&lt;span style=&quot;color: rgb(36 , 41 , 46) ; font-family: , , &amp;#34;sf mono&amp;#34; , &amp;#34;consolas&amp;#34; , &amp;#34;liberation mono&amp;#34; , &amp;#34;menlo&amp;#34; , monospace ; background-color: rgb(255 , 255 , 255)&quot;&gt;)&lt;/span&gt;" style="rounded=1;whiteSpace=wrap;html=1;fontSize=12;glass=0;strokeWidth=1;shadow=0;" vertex="1" parent="WIyWlLk6GJQsqaUBKTNV-1">
          <mxGeometry x="512" y="200" width="116" height="50" as="geometry" />
        </mxCell>
        <mxCell id="9Kswj52puxj7toGKXcYN-47" value="" style="edgeStyle=orthogonalEdgeStyle;rounded=0;orthogonalLoop=1;jettySize=auto;html=1;" edge="1" parent="WIyWlLk6GJQsqaUBKTNV-1" source="9Kswj52puxj7toGKXcYN-46" target="9Kswj52puxj7toGKXcYN-43">
          <mxGeometry relative="1" as="geometry" />
        </mxCell>
        <mxCell id="9Kswj52puxj7toGKXcYN-46" value="&lt;span style=&quot;color: rgb(227 , 98 , 9) ; background-color: rgb(255 , 255 , 255)&quot;&gt;RoomDetails&lt;br&gt;&lt;/span&gt;初期化" style="whiteSpace=wrap;html=1;" vertex="1" parent="WIyWlLk6GJQsqaUBKTNV-1">
          <mxGeometry x="160" y="380" width="120" height="40" as="geometry" />
        </mxCell>
        <mxCell id="9Kswj52puxj7toGKXcYN-56" value="" style="edgeStyle=orthogonalEdgeStyle;rounded=0;orthogonalLoop=1;jettySize=auto;html=1;" edge="1" parent="WIyWlLk6GJQsqaUBKTNV-1" source="9Kswj52puxj7toGKXcYN-53" target="9Kswj52puxj7toGKXcYN-55">
          <mxGeometry relative="1" as="geometry" />
        </mxCell>
        <mxCell id="9Kswj52puxj7toGKXcYN-53" value="ページ内の&lt;br&gt;物件ごとのHTML取得" style="whiteSpace=wrap;html=1;rounded=0;" vertex="1" parent="WIyWlLk6GJQsqaUBKTNV-1">
          <mxGeometry x="510" y="400" width="120" height="40" as="geometry" />
        </mxCell>
        <mxCell id="9Kswj52puxj7toGKXcYN-59" value="" style="edgeStyle=orthogonalEdgeStyle;rounded=0;orthogonalLoop=1;jettySize=auto;html=1;" edge="1" parent="WIyWlLk6GJQsqaUBKTNV-1" source="9Kswj52puxj7toGKXcYN-55" target="9Kswj52puxj7toGKXcYN-58">
          <mxGeometry relative="1" as="geometry" />
        </mxCell>
        <mxCell id="9Kswj52puxj7toGKXcYN-55" value="&lt;span style=&quot;color: rgb(36 , 41 , 46) ; font-family: , , &amp;#34;sf mono&amp;#34; , &amp;#34;consolas&amp;#34; , &amp;#34;liberation mono&amp;#34; , &amp;#34;menlo&amp;#34; , monospace ; background-color: rgb(255 , 255 , 255)&quot;&gt;cassetteitems&lt;br&gt;&lt;/span&gt;物件要素ごとLoop" style="shape=trapezoid;perimeter=trapezoidPerimeter;whiteSpace=wrap;html=1;fixedSize=1;" vertex="1" parent="WIyWlLk6GJQsqaUBKTNV-1">
          <mxGeometry x="510" y="460" width="120" height="50" as="geometry" />
        </mxCell>
        <mxCell id="9Kswj52puxj7toGKXcYN-62" value="" style="edgeStyle=orthogonalEdgeStyle;rounded=0;orthogonalLoop=1;jettySize=auto;html=1;" edge="1" parent="WIyWlLk6GJQsqaUBKTNV-1" source="9Kswj52puxj7toGKXcYN-57" target="9Kswj52puxj7toGKXcYN-61">
          <mxGeometry relative="1" as="geometry" />
        </mxCell>
        <mxCell id="9Kswj52puxj7toGKXcYN-57" value="&lt;span style=&quot;color: rgb(36 , 41 , 46) ; font-family: , , &amp;#34;sf mono&amp;#34; , &amp;#34;consolas&amp;#34; , &amp;#34;liberation mono&amp;#34; , &amp;#34;menlo&amp;#34; , monospace ; background-color: rgb(255 , 255 , 255)&quot;&gt;cassetteitems&lt;br&gt;&lt;/span&gt;物件ごとLoop" style="shape=trapezoid;perimeter=trapezoidPerimeter;whiteSpace=wrap;html=1;fixedSize=1;direction=west;" vertex="1" parent="WIyWlLk6GJQsqaUBKTNV-1">
          <mxGeometry x="510" y="650" width="120" height="50" as="geometry" />
        </mxCell>
        <mxCell id="9Kswj52puxj7toGKXcYN-60" value="" style="edgeStyle=orthogonalEdgeStyle;rounded=0;orthogonalLoop=1;jettySize=auto;html=1;" edge="1" parent="WIyWlLk6GJQsqaUBKTNV-1" source="9Kswj52puxj7toGKXcYN-58" target="9Kswj52puxj7toGKXcYN-69">
          <mxGeometry relative="1" as="geometry" />
        </mxCell>
        <mxCell id="9Kswj52puxj7toGKXcYN-66" style="edgeStyle=orthogonalEdgeStyle;rounded=0;orthogonalLoop=1;jettySize=auto;html=1;entryX=0.5;entryY=0;entryDx=0;entryDy=0;" edge="1" parent="WIyWlLk6GJQsqaUBKTNV-1" source="9Kswj52puxj7toGKXcYN-58" target="9Kswj52puxj7toGKXcYN-65">
          <mxGeometry relative="1" as="geometry">
            <Array as="points">
              <mxPoint x="655" y="550" />
              <mxPoint x="655" y="180" />
              <mxPoint x="738" y="180" />
            </Array>
          </mxGeometry>
        </mxCell>
        <mxCell id="9Kswj52puxj7toGKXcYN-58" value="ParseRoomDetail" style="shape=process;whiteSpace=wrap;html=1;backgroundOutline=1;" vertex="1" parent="WIyWlLk6GJQsqaUBKTNV-1">
          <mxGeometry x="510" y="530" width="120" height="40" as="geometry" />
        </mxCell>
        <mxCell id="9Kswj52puxj7toGKXcYN-63" style="edgeStyle=orthogonalEdgeStyle;rounded=0;orthogonalLoop=1;jettySize=auto;html=1;entryX=1;entryY=0.75;entryDx=0;entryDy=0;exitX=0;exitY=0.5;exitDx=0;exitDy=0;" edge="1" parent="WIyWlLk6GJQsqaUBKTNV-1" source="9Kswj52puxj7toGKXcYN-61" target="9Kswj52puxj7toGKXcYN-43">
          <mxGeometry relative="1" as="geometry">
            <Array as="points">
              <mxPoint x="480" y="740" />
              <mxPoint x="480" y="490" />
            </Array>
          </mxGeometry>
        </mxCell>
        <mxCell id="9Kswj52puxj7toGKXcYN-61" value="&lt;span style=&quot;background-color: rgb(255 , 255 , 255)&quot;&gt;Return&lt;br&gt;&lt;/span&gt;&lt;span style=&quot;color: rgb(227 , 98 , 9) ; font-family: , , &amp;#34;sf mono&amp;#34; , &amp;#34;consolas&amp;#34; , &amp;#34;liberation mono&amp;#34; , &amp;#34;menlo&amp;#34; , monospace ; background-color: rgb(255 , 255 , 255)&quot;&gt;RoomDetails&lt;/span&gt;" style="rounded=1;whiteSpace=wrap;html=1;fontSize=12;glass=0;strokeWidth=1;shadow=0;" vertex="1" parent="WIyWlLk6GJQsqaUBKTNV-1">
          <mxGeometry x="510" y="720" width="120" height="40" as="geometry" />
        </mxCell>
        <mxCell id="9Kswj52puxj7toGKXcYN-68" value="" style="edgeStyle=orthogonalEdgeStyle;rounded=0;orthogonalLoop=1;jettySize=auto;html=1;" edge="1" parent="WIyWlLk6GJQsqaUBKTNV-1" source="9Kswj52puxj7toGKXcYN-65" target="9Kswj52puxj7toGKXcYN-67">
          <mxGeometry relative="1" as="geometry" />
        </mxCell>
        <mxCell id="9Kswj52puxj7toGKXcYN-65" value="&lt;span class=&quot;pl-v&quot; style=&quot;box-sizing: border-box ; font-family: , , &amp;#34;sf mono&amp;#34; , &amp;#34;consolas&amp;#34; , &amp;#34;liberation mono&amp;#34; , &amp;#34;menlo&amp;#34; , monospace ; background-color: rgb(255 , 255 , 255)&quot;&gt;&lt;span class=&quot;pl-token&quot; style=&quot;box-sizing: border-box&quot;&gt;&lt;span style=&quot;background-color: rgb(248 , 249 , 250)&quot;&gt;ParseRoomDetail&lt;/span&gt;&lt;br&gt;&lt;/span&gt;&lt;/span&gt;&lt;span style=&quot;color: rgb(36 , 41 , 46) ; font-family: , , &amp;#34;sf mono&amp;#34; , &amp;#34;consolas&amp;#34; , &amp;#34;liberation mono&amp;#34; , &amp;#34;menlo&amp;#34; , monospace ; background-color: rgb(255 , 255 , 255)&quot;&gt;(&lt;/span&gt;&lt;span style=&quot;color: rgb(234 , 107 , 102) ; background-color: rgb(255 , 255 , 255)&quot;&gt;EstateElem,&amp;nbsp;&lt;br&gt;&lt;/span&gt;&lt;span style=&quot;color: rgb(227 , 98 , 9) ; font-family: , , &amp;#34;sf mono&amp;#34; , &amp;#34;consolas&amp;#34; , &amp;#34;liberation mono&amp;#34; , &amp;#34;menlo&amp;#34; , monospace ; background-color: rgb(255 , 255 , 255)&quot;&gt;PageURL&lt;/span&gt;&lt;span style=&quot;color: rgb(36 , 41 , 46) ; font-family: , , &amp;#34;sf mono&amp;#34; , &amp;#34;consolas&amp;#34; , &amp;#34;liberation mono&amp;#34; , &amp;#34;menlo&amp;#34; , monospace ; background-color: rgb(255 , 255 , 255)&quot;&gt;)&lt;/span&gt;" style="rounded=1;whiteSpace=wrap;html=1;fontSize=12;glass=0;strokeWidth=1;shadow=0;" vertex="1" parent="WIyWlLk6GJQsqaUBKTNV-1">
          <mxGeometry x="680" y="200" width="116" height="50" as="geometry" />
        </mxCell>
        <mxCell id="9Kswj52puxj7toGKXcYN-77" value="" style="edgeStyle=orthogonalEdgeStyle;rounded=0;orthogonalLoop=1;jettySize=auto;html=1;" edge="1" parent="WIyWlLk6GJQsqaUBKTNV-1" source="9Kswj52puxj7toGKXcYN-67" target="9Kswj52puxj7toGKXcYN-75">
          <mxGeometry relative="1" as="geometry" />
        </mxCell>
        <mxCell id="9Kswj52puxj7toGKXcYN-67" value="Header情報&lt;br&gt;スクレイピング" style="rounded=0;whiteSpace=wrap;html=1;" vertex="1" parent="WIyWlLk6GJQsqaUBKTNV-1">
          <mxGeometry x="678" y="270" width="120" height="40" as="geometry" />
        </mxCell>
        <mxCell id="9Kswj52puxj7toGKXcYN-73" value="" style="edgeStyle=orthogonalEdgeStyle;rounded=0;orthogonalLoop=1;jettySize=auto;html=1;" edge="1" parent="WIyWlLk6GJQsqaUBKTNV-1" source="9Kswj52puxj7toGKXcYN-69" target="9Kswj52puxj7toGKXcYN-57">
          <mxGeometry relative="1" as="geometry" />
        </mxCell>
        <mxCell id="9Kswj52puxj7toGKXcYN-69" value="RoomDetailsに格納" style="whiteSpace=wrap;html=1;rounded=0;" vertex="1" parent="WIyWlLk6GJQsqaUBKTNV-1">
          <mxGeometry x="510" y="590" width="120" height="40" as="geometry" />
        </mxCell>
        <mxCell id="9Kswj52puxj7toGKXcYN-82" value="" style="edgeStyle=orthogonalEdgeStyle;rounded=0;orthogonalLoop=1;jettySize=auto;html=1;entryX=0.5;entryY=0;entryDx=0;entryDy=0;" edge="1" parent="WIyWlLk6GJQsqaUBKTNV-1" source="9Kswj52puxj7toGKXcYN-74" target="9Kswj52puxj7toGKXcYN-85">
          <mxGeometry relative="1" as="geometry" />
        </mxCell>
        <mxCell id="9Kswj52puxj7toGKXcYN-74" value="部屋情報&lt;br&gt;スクレイピング" style="rounded=0;whiteSpace=wrap;html=1;" vertex="1" parent="WIyWlLk6GJQsqaUBKTNV-1">
          <mxGeometry x="678" y="520" width="120" height="40" as="geometry" />
        </mxCell>
        <mxCell id="9Kswj52puxj7toGKXcYN-79" value="" style="edgeStyle=orthogonalEdgeStyle;rounded=0;orthogonalLoop=1;jettySize=auto;html=1;entryX=0.5;entryY=0;entryDx=0;entryDy=0;" edge="1" parent="WIyWlLk6GJQsqaUBKTNV-1" source="9Kswj52puxj7toGKXcYN-75" target="9Kswj52puxj7toGKXcYN-83">
          <mxGeometry relative="1" as="geometry" />
        </mxCell>
        <mxCell id="9Kswj52puxj7toGKXcYN-75" value="部屋ごとの&lt;br&gt;HTML取得" style="whiteSpace=wrap;html=1;rounded=0;" vertex="1" parent="WIyWlLk6GJQsqaUBKTNV-1">
          <mxGeometry x="678" y="330" width="120" height="40" as="geometry" />
        </mxCell>
        <mxCell id="9Kswj52puxj7toGKXcYN-80" value="" style="edgeStyle=orthogonalEdgeStyle;rounded=0;orthogonalLoop=1;jettySize=auto;html=1;" edge="1" parent="WIyWlLk6GJQsqaUBKTNV-1" source="9Kswj52puxj7toGKXcYN-78" target="9Kswj52puxj7toGKXcYN-74">
          <mxGeometry relative="1" as="geometry" />
        </mxCell>
        <mxCell id="9Kswj52puxj7toGKXcYN-78" value="&lt;span style=&quot;background-color: rgb(255 , 255 , 255)&quot;&gt;RoomtableElem&lt;/span&gt;&lt;span style=&quot;color: rgb(36 , 41 , 46) ; font-family: , , &amp;#34;sf mono&amp;#34; , &amp;#34;consolas&amp;#34; , &amp;#34;liberation mono&amp;#34; , &amp;#34;menlo&amp;#34; , monospace ; background-color: rgb(255 , 255 , 255)&quot;&gt;&lt;br&gt;&lt;/span&gt;部屋要素ごとLoop" style="shape=trapezoid;perimeter=trapezoidPerimeter;whiteSpace=wrap;html=1;fixedSize=1;" vertex="1" parent="WIyWlLk6GJQsqaUBKTNV-1">
          <mxGeometry x="678" y="450" width="120" height="50" as="geometry" />
        </mxCell>
        <mxCell id="9Kswj52puxj7toGKXcYN-89" value="" style="edgeStyle=orthogonalEdgeStyle;rounded=0;orthogonalLoop=1;jettySize=auto;html=1;" edge="1" parent="WIyWlLk6GJQsqaUBKTNV-1" source="9Kswj52puxj7toGKXcYN-81" target="9Kswj52puxj7toGKXcYN-88">
          <mxGeometry relative="1" as="geometry" />
        </mxCell>
        <mxCell id="9Kswj52puxj7toGKXcYN-81" value="&lt;span style=&quot;background-color: rgb(255 , 255 , 255)&quot;&gt;RoomtableElem&lt;/span&gt;&lt;span style=&quot;color: rgb(36 , 41 , 46) ; font-family: , , &amp;#34;sf mono&amp;#34; , &amp;#34;consolas&amp;#34; , &amp;#34;liberation mono&amp;#34; , &amp;#34;menlo&amp;#34; , monospace ; background-color: rgb(255 , 255 , 255)&quot;&gt;&lt;br&gt;&lt;/span&gt;部屋要素ごとLoop" style="shape=trapezoid;perimeter=trapezoidPerimeter;whiteSpace=wrap;html=1;fixedSize=1;direction=west;" vertex="1" parent="WIyWlLk6GJQsqaUBKTNV-1">
          <mxGeometry x="678" y="700" width="120" height="50" as="geometry" />
        </mxCell>
        <mxCell id="9Kswj52puxj7toGKXcYN-84" value="" style="edgeStyle=orthogonalEdgeStyle;rounded=0;orthogonalLoop=1;jettySize=auto;html=1;" edge="1" parent="WIyWlLk6GJQsqaUBKTNV-1" source="9Kswj52puxj7toGKXcYN-83" target="9Kswj52puxj7toGKXcYN-78">
          <mxGeometry relative="1" as="geometry" />
        </mxCell>
        <mxCell id="9Kswj52puxj7toGKXcYN-83" value="&lt;span style=&quot;color: rgb(227 , 98 , 9) ; background-color: rgb(255 , 255 , 255)&quot;&gt;RoomDetail&lt;br&gt;&lt;/span&gt;初期化" style="whiteSpace=wrap;html=1;" vertex="1" parent="WIyWlLk6GJQsqaUBKTNV-1">
          <mxGeometry x="678" y="390" width="120" height="40" as="geometry" />
        </mxCell>
        <mxCell id="9Kswj52puxj7toGKXcYN-87" value="" style="edgeStyle=orthogonalEdgeStyle;rounded=0;orthogonalLoop=1;jettySize=auto;html=1;entryX=0.5;entryY=0;entryDx=0;entryDy=0;" edge="1" parent="WIyWlLk6GJQsqaUBKTNV-1" source="9Kswj52puxj7toGKXcYN-85" target="9Kswj52puxj7toGKXcYN-91">
          <mxGeometry relative="1" as="geometry" />
        </mxCell>
        <mxCell id="9Kswj52puxj7toGKXcYN-85" value="&lt;span style=&quot;color: rgb(227 , 98 , 9) ; background-color: rgb(255 , 255 , 255)&quot;&gt;RoomDetail&lt;/span&gt;に格納" style="rounded=0;whiteSpace=wrap;html=1;" vertex="1" parent="WIyWlLk6GJQsqaUBKTNV-1">
          <mxGeometry x="678" y="580" width="120" height="40" as="geometry" />
        </mxCell>
        <mxCell id="9Kswj52puxj7toGKXcYN-90" style="edgeStyle=orthogonalEdgeStyle;rounded=0;orthogonalLoop=1;jettySize=auto;html=1;entryX=1;entryY=0.75;entryDx=0;entryDy=0;exitX=0;exitY=0.5;exitDx=0;exitDy=0;" edge="1" parent="WIyWlLk6GJQsqaUBKTNV-1" source="9Kswj52puxj7toGKXcYN-88" target="9Kswj52puxj7toGKXcYN-58">
          <mxGeometry relative="1" as="geometry">
            <Array as="points">
              <mxPoint x="660" y="790" />
              <mxPoint x="660" y="560" />
            </Array>
          </mxGeometry>
        </mxCell>
        <mxCell id="9Kswj52puxj7toGKXcYN-88" value="&lt;span style=&quot;background-color: rgb(255 , 255 , 255)&quot;&gt;Return&lt;br&gt;&lt;/span&gt;&lt;span style=&quot;color: rgb(227 , 98 , 9) ; font-family: , , &amp;#34;sf mono&amp;#34; , &amp;#34;consolas&amp;#34; , &amp;#34;liberation mono&amp;#34; , &amp;#34;menlo&amp;#34; , monospace ; background-color: rgb(255 , 255 , 255)&quot;&gt;RoomDetail&lt;/span&gt;" style="rounded=1;whiteSpace=wrap;html=1;fontSize=12;glass=0;strokeWidth=1;shadow=0;" vertex="1" parent="WIyWlLk6GJQsqaUBKTNV-1">
          <mxGeometry x="678" y="770" width="120" height="40" as="geometry" />
        </mxCell>
        <mxCell id="9Kswj52puxj7toGKXcYN-92" style="edgeStyle=orthogonalEdgeStyle;rounded=0;orthogonalLoop=1;jettySize=auto;html=1;" edge="1" parent="WIyWlLk6GJQsqaUBKTNV-1" source="9Kswj52puxj7toGKXcYN-91" target="9Kswj52puxj7toGKXcYN-81">
          <mxGeometry relative="1" as="geometry" />
        </mxCell>
        <mxCell id="9Kswj52puxj7toGKXcYN-91" value="&lt;span style=&quot;color: rgb(227 , 98 , 9) ; background-color: rgb(255 , 255 , 255)&quot;&gt;RoomDetail&lt;/span&gt;に&lt;br&gt;Header情報を追加" style="rounded=0;whiteSpace=wrap;html=1;" vertex="1" parent="WIyWlLk6GJQsqaUBKTNV-1">
          <mxGeometry x="678" y="640" width="120" height="40" as="geometry" />
        </mxCell>
      </root>
    </mxGraphModel>
  </diagram>
</mxfile>
